<svg width="1950" height="1050" viewBox="0 0 1950 1050" fill="none" xmlns="http://www.w3.org/2000/svg">
<rect width="150" height="150" transform="matrix(-1 0 0 1 1200 300)" fill="black" fill-opacity="0.5"/>
<rect width="150" height="150" transform="matrix(-1 0 0 1 150 450)" fill="black" fill-opacity="0.5"/>
<rect width="150" height="450" transform="matrix(-1 0 0 1 600 150)" fill="black" fill-opacity="0.5"/>
<rect width="600" height="150" transform="matrix(-1 0 0 1 600 0.00012207)" fill="black" fill-opacity="0.5"/>
<rect width="150" height="300" transform="matrix(-1 0 0 1 1200 600)" fill="black" fill-opacity="0.5"/>
<rect width="900" height="150" transform="matrix(-1 0 0 1 1950 900)" fill="black" fill-opacity="0.5"/>
<rect width="900" height="150" transform="matrix(-1 0 0 1 900 900)" fill="black" fill-opacity="0.5"/>
<rect width="900" height="150" transform="matrix(-1 0 0 1 1950 9.15527e-05)" fill="black" fill-opacity="0.5"/>
<rect width="150" height="450" transform="matrix(-1 0 0 1 1950 150)" fill="black" fill-opacity="0.5"/>
<rect width="300" height="50" transform="matrix(0 -1 -1 0 1400 600)" fill="black" fill-opacity="0.5"/>
<rect width="151" height="50" transform="matrix(0 -1 -1 0 1500 451)" fill="black" fill-opacity="0.5"/>
<rect width="250" height="50" transform="matrix(1 0 0 -1 1400 600)" fill="black" fill-opacity="0.5"/>
<rect width="200" height="50" transform="matrix(1 0 0 -1 1450 501)" fill="black" fill-opacity="0.5"/>
<rect width="50" height="50" transform="matrix(1 0 0 -1 1550 401)" fill="black" fill-opacity="0.5"/>
<rect width="25" height="25" transform="matrix(1 0 0 -1 1575 738)" fill="black" fill-opacity="0.5"/>
<rect width="25" height="25" transform="matrix(1 0 0 -1 1375 738)" fill="black" fill-opacity="0.5"/>
<rect width="25" height="25" transform="matrix(1 0 0 -1 1775 738)" fill="black" fill-opacity="0.5"/>
<rect width="25" height="25" transform="matrix(1 0 0 -1 1475 738)" fill="black" fill-opacity="0.5"/>
<rect width="25" height="25" transform="matrix(1 0 0 -1 1275 738)" fill="black" fill-opacity="0.5"/>
<rect width="25" height="25" transform="matrix(1 0 0 -1 1425 738)" fill="black" fill-opacity="0.5"/>
<rect width="25" height="25" transform="matrix(1 0 0 -1 1525 738)" fill="black" fill-opacity="0.5"/>
<rect width="25" height="25" transform="matrix(1 0 0 -1 1625 738)" fill="black" fill-opacity="0.5"/>
<rect width="25" height="25" transform="matrix(1 0 0 -1 1725 738)" fill="black" fill-opacity="0.5"/>
<rect width="25" height="25" transform="matrix(1 0 0 -1 1325 738)" fill="black" fill-opacity="0.5"/>
<rect width="25" height="25" transform="matrix(1 0 0 -1 1675 738)" fill="black" fill-opacity="0.5"/>
<rect width="25" height="25" transform="matrix(1 0 0 -1 1575 788)" fill="black" fill-opacity="0.5"/>
<rect width="25" height="25" transform="matrix(1 0 0 -1 1375 788)" fill="black" fill-opacity="0.5"/>
<rect width="25" height="25" transform="matrix(1 0 0 -1 1775 788)" fill="black" fill-opacity="0.5"/>
<rect width="25" height="25" transform="matrix(1 0 0 -1 1475 788)" fill="black" fill-opacity="0.5"/>
<rect width="25" height="25" transform="matrix(1 0 0 -1 1275 788)" fill="black" fill-opacity="0.5"/>
<rect width="25" height="25" transform="matrix(1 0 0 -1 1425 788)" fill="black" fill-opacity="0.5"/>
<rect width="25" height="25" transform="matrix(1 0 0 -1 1525 788)" fill="black" fill-opacity="0.5"/>
<rect width="25" height="25" transform="matrix(1 0 0 -1 1625 788)" fill="black" fill-opacity="0.5"/>
<rect width="25" height="25" transform="matrix(1 0 0 -1 1725 788)" fill="black" fill-opacity="0.5"/>
<rect width="25" height="25" transform="matrix(1 0 0 -1 1325 788)" fill="black" fill-opacity="0.5"/>
<rect width="25" height="25" transform="matrix(1 0 0 -1 1675 788)" fill="black" fill-opacity="0.5"/>
<rect width="25" height="25" transform="matrix(1 0 0 -1 1575 838)" fill="black" fill-opacity="0.5"/>
<rect width="25" height="25" transform="matrix(1 0 0 -1 1375 838)" fill="black" fill-opacity="0.5"/>
<rect width="25" height="25" transform="matrix(1 0 0 -1 1775 838)" fill="black" fill-opacity="0.5"/>
<rect width="25" height="25" transform="matrix(1 0 0 -1 1475 838)" fill="black" fill-opacity="0.5"/>
<rect width="25" height="25" transform="matrix(1 0 0 -1 1275 838)" fill="black" fill-opacity="0.5"/>
<rect width="25" height="25" transform="matrix(1 0 0 -1 1425 838)" fill="black" fill-opacity="0.5"/>
<rect width="25" height="25" transform="matrix(1 0 0 -1 1525 838)" fill="black" fill-opacity="0.5"/>
<rect width="25" height="25" transform="matrix(1 0 0 -1 1625 838)" fill="black" fill-opacity="0.5"/>
<rect width="25" height="25" transform="matrix(1 0 0 -1 1725 838)" fill="black" fill-opacity="0.5"/>
<rect width="25" height="25" transform="matrix(1 0 0 -1 1325 838)" fill="black" fill-opacity="0.5"/>
<rect width="25" height="25" transform="matrix(1 0 0 -1 1675 838)" fill="black" fill-opacity="0.5"/>
<rect width="25" height="25" transform="matrix(1 0 0 -1 1575 688)" fill="black" fill-opacity="0.5"/>
<rect width="25" height="25" transform="matrix(1 0 0 -1 1375 688)" fill="black" fill-opacity="0.5"/>
<rect width="25" height="25" transform="matrix(1 0 0 -1 1775 688)" fill="black" fill-opacity="0.5"/>
<rect width="25" height="25" transform="matrix(1 0 0 -1 1475 688)" fill="black" fill-opacity="0.5"/>
<rect width="25" height="25" transform="matrix(1 0 0 -1 1275 688)" fill="black" fill-opacity="0.5"/>
<rect width="25" height="25" transform="matrix(1 0 0 -1 1425 688)" fill="black" fill-opacity="0.5"/>
<rect width="25" height="25" transform="matrix(1 0 0 -1 1525 688)" fill="black" fill-opacity="0.5"/>
<rect width="25" height="25" transform="matrix(1 0 0 -1 1625 688)" fill="black" fill-opacity="0.5"/>
<rect width="25" height="25" transform="matrix(1 0 0 -1 1725 688)" fill="black" fill-opacity="0.5"/>
<rect width="25" height="25" transform="matrix(1 0 0 -1 1325 688)" fill="black" fill-opacity="0.5"/>
<rect width="25" height="25" transform="matrix(1 0 0 -1 1675 688)" fill="black" fill-opacity="0.5"/>
<rect width="400" height="50" transform="matrix(-1 0 0 1 400 200)" fill="black" fill-opacity="0.5"/>
<rect width="850" height="50" transform="matrix(-1 0 0 1 850 800)" fill="black" fill-opacity="0.5"/>
<rect width="749" height="50" transform="matrix(0 -1 -1 0 800 750)" fill="black" fill-opacity="0.5"/>
<rect width="850" height="50" transform="matrix(0 -1 -1 0 900 850)" fill="black" fill-opacity="0.5"/>
<rect width="750" height="50" transform="matrix(-1 0 0 1 750 700)" fill="black" fill-opacity="0.5"/>
<rect width="300" height="50" transform="matrix(-1 0 0 1 300 300)" fill="black" fill-opacity="0.5"/>
<rect width="350" height="50" transform="matrix(0 -1 -1 0 400 600)" fill="black" fill-opacity="0.5"/>
<rect width="250" height="50" transform="matrix(0 -1 -1 0 300 600)" fill="black" fill-opacity="0.5"/>
</svg>
