<svg width="1950" height="1050" viewBox="0 0 1950 1050" fill="none" xmlns="http://www.w3.org/2000/svg">
<path d="M374.847 508.557V426.312L553.611 144.636H626.693V256.284H584.293L479.676 422.051V425.46H738.554V508.557H374.847ZM585.571 581V483.415L587.702 447.406V144.636H686.352V581H585.571ZM974.314 591.653C936.246 591.653 903.433 582.634 875.876 564.594C848.32 546.412 827.084 520.347 812.169 486.398C797.254 452.307 789.868 411.327 790.01 363.457C790.152 315.588 797.609 274.963 812.382 241.582C827.297 208.06 848.462 182.562 875.876 165.091C903.433 147.477 936.246 138.67 974.314 138.67C1012.38 138.67 1045.19 147.477 1072.75 165.091C1100.45 182.562 1121.76 208.06 1136.67 241.582C1151.59 275.105 1158.97 315.73 1158.83 363.457C1158.83 411.469 1151.37 452.52 1136.46 486.611C1121.54 520.702 1100.31 546.767 1072.75 564.807C1045.34 582.705 1012.52 591.653 974.314 591.653ZM974.314 505.361C997.041 505.361 1015.44 493.784 1029.5 470.631C1043.56 447.335 1050.52 411.611 1050.38 363.457C1050.38 331.923 1047.18 305.929 1040.79 285.474C1034.4 264.878 1025.52 249.537 1014.16 239.452C1002.79 229.366 989.513 224.324 974.314 224.324C951.729 224.324 933.476 235.759 919.555 258.628C905.635 281.355 898.604 316.298 898.462 363.457C898.32 395.418 901.374 421.909 907.624 442.932C914.016 463.955 922.964 479.651 934.47 490.02C945.976 500.247 959.257 505.361 974.314 505.361ZM1213.91 508.557V426.312L1392.67 144.636H1465.76V256.284H1423.36L1318.74 422.051V425.46H1577.62V508.557H1213.91ZM1424.63 581V483.415L1426.76 447.406V144.636H1525.41V581H1424.63Z" fill="black" fill-opacity="0.5"/>
</svg>
